<?xml version="1.0" standalone="no"?>
<svg xmlns:xlink="http://www.w3.org/1999/xlink" id="wave" style="transform:rotate(0deg); transition: 0.3s" viewBox="0 0 1440 320" version="1.1" xmlns="http://www.w3.org/2000/svg"><defs><linearGradient id="sw-gradient-0" x1="0" x2="0" y1="1" y2="0"><stop stop-color="rgba(255, 0, 27, 1)" offset="0%"/><stop stop-color="rgba(196, 2, 25, 0.12156862745098039)" offset="100%"/></linearGradient></defs><path style="transform:translate(0, 0px); opacity:1" fill="url(#sw-gradient-0)" d="M0,0L48,32C96,64,192,128,288,170.7C384,213,480,235,576,245.3C672,256,768,256,864,234.7C960,213,1056,171,1152,170.7C1248,171,1344,213,1440,218.7C1536,224,1632,192,1728,192C1824,192,1920,224,2016,218.7C2112,213,2208,171,2304,138.7C2400,107,2496,85,2592,74.7C2688,64,2784,64,2880,69.3C2976,75,3072,85,3168,117.3C3264,149,3360,203,3456,213.3C3552,224,3648,192,3744,176C3840,160,3936,160,4032,176C4128,192,4224,224,4320,229.3C4416,235,4512,213,4608,202.7C4704,192,4800,192,4896,170.7C4992,149,5088,107,5184,74.7C5280,43,5376,21,5472,37.3C5568,53,5664,107,5760,149.3C5856,192,5952,224,6048,234.7C6144,245,6240,235,6336,234.7C6432,235,6528,245,6624,234.7C6720,224,6816,192,6864,176L6912,160L6912,320L6864,320C6816,320,6720,320,6624,320C6528,320,6432,320,6336,320C6240,320,6144,320,6048,320C5952,320,5856,320,5760,320C5664,320,5568,320,5472,320C5376,320,5280,320,5184,320C5088,320,4992,320,4896,320C4800,320,4704,320,4608,320C4512,320,4416,320,4320,320C4224,320,4128,320,4032,320C3936,320,3840,320,3744,320C3648,320,3552,320,3456,320C3360,320,3264,320,3168,320C3072,320,2976,320,2880,320C2784,320,2688,320,2592,320C2496,320,2400,320,2304,320C2208,320,2112,320,2016,320C1920,320,1824,320,1728,320C1632,320,1536,320,1440,320C1344,320,1248,320,1152,320C1056,320,960,320,864,320C768,320,672,320,576,320C480,320,384,320,288,320C192,320,96,320,48,320L0,320Z"/></svg>